<mxfile host="65bd71144e">
    <diagram id="51rfdcTQciJFHXt1mYzN" name="Page-1">
        <mxGraphModel dx="681" dy="424" grid="1" gridSize="10" guides="0" tooltips="1" connect="1" arrows="1" fold="1" page="1" pageScale="1" pageWidth="850" pageHeight="1100" math="0" shadow="0">
            <root>
                <mxCell id="0"/>
                <mxCell id="1" parent="0"/>
                <mxCell id="1CFGk_sMDlgsf0Qjuxhe-18" value="&lt;b style=&quot;border-color: var(--border-color);&quot;&gt;微码缓存行&lt;/b&gt;" style="text;html=1;strokeColor=none;fillColor=none;align=center;verticalAlign=middle;whiteSpace=wrap;rounded=0;fontFamily=mono;" parent="1" vertex="1">
                    <mxGeometry x="210" y="280" width="110" height="30" as="geometry"/>
                </mxCell>
                <mxCell id="4" value="&lt;font style=&quot;font-size: 10px;&quot; face=&quot;Helvetica&quot;&gt;微码0&lt;/font&gt;" style="rounded=0;whiteSpace=wrap;html=1;fontFamily=mono;fillColor=#f8cecc;strokeColor=#b85450;gradientColor=none;gradientDirection=west;" vertex="1" parent="1">
                    <mxGeometry x="120" y="320" width="60" height="20" as="geometry"/>
                </mxCell>
                <mxCell id="5" value="&lt;font face=&quot;Helvetica&quot;&gt;&lt;span style=&quot;font-size: 10px;&quot;&gt;微码1&lt;/span&gt;&lt;/font&gt;" style="rounded=0;whiteSpace=wrap;html=1;fontFamily=mono;fillColor=#f8cecc;strokeColor=#b85450;gradientColor=none;gradientDirection=west;" vertex="1" parent="1">
                    <mxGeometry x="180" y="320" width="60" height="20" as="geometry"/>
                </mxCell>
                <mxCell id="6" value="&lt;font style=&quot;font-size: 10px;&quot; face=&quot;Helvetica&quot;&gt;微码2&lt;/font&gt;" style="rounded=0;whiteSpace=wrap;html=1;fontFamily=mono;fillColor=#f8cecc;strokeColor=#b85450;gradientColor=none;gradientDirection=west;" vertex="1" parent="1">
                    <mxGeometry x="240" y="320" width="60" height="20" as="geometry"/>
                </mxCell>
                <mxCell id="7" value="&lt;font face=&quot;Helvetica&quot;&gt;&lt;span style=&quot;font-size: 10px;&quot;&gt;...&lt;/span&gt;&lt;/font&gt;" style="rounded=0;whiteSpace=wrap;html=1;fontFamily=mono;fillColor=#f5f5f5;strokeColor=#666666;gradientDirection=west;fontColor=#333333;" vertex="1" parent="1">
                    <mxGeometry x="300" y="320" width="120" height="20" as="geometry"/>
                </mxCell>
                <mxCell id="9" value="&lt;font style=&quot;font-size: 10px;&quot; face=&quot;Helvetica&quot;&gt;立即数1&lt;/font&gt;" style="rounded=0;whiteSpace=wrap;html=1;fontFamily=mono;fillColor=#dae8fc;strokeColor=#6c8ebf;gradientDirection=west;" vertex="1" parent="1">
                    <mxGeometry x="420" y="320" width="60" height="20" as="geometry"/>
                </mxCell>
                <mxCell id="10" value="&lt;font style=&quot;font-size: 10px;&quot; face=&quot;Helvetica&quot;&gt;立即数0&lt;/font&gt;" style="rounded=0;whiteSpace=wrap;html=1;fontFamily=mono;fillColor=#dae8fc;strokeColor=#6c8ebf;gradientDirection=west;" vertex="1" parent="1">
                    <mxGeometry x="480" y="320" width="60" height="20" as="geometry"/>
                </mxCell>
                <mxCell id="12" value="" style="rounded=0;whiteSpace=wrap;html=1;fontFamily=mono;fillColor=#d5e8d4;strokeColor=#82b366;gradientDirection=west;" vertex="1" parent="1">
                    <mxGeometry x="60" y="320" width="60" height="20" as="geometry"/>
                </mxCell>
                <mxCell id="13" value="" style="rounded=0;whiteSpace=wrap;html=1;fontFamily=mono;fillColor=#e1d5e7;strokeColor=#9673a6;gradientDirection=west;" vertex="1" parent="1">
                    <mxGeometry x="50" y="320" width="10" height="20" as="geometry"/>
                </mxCell>
                <mxCell id="14" value="" style="shape=curlyBracket;whiteSpace=wrap;html=1;rounded=1;labelPosition=left;verticalLabelPosition=middle;align=right;verticalAlign=middle;fillColor=#f5f5f5;fontColor=#333333;strokeColor=#666666;direction=north;" vertex="1" parent="1">
                    <mxGeometry x="50" y="340" width="70" height="10" as="geometry"/>
                </mxCell>
                <mxCell id="15" value="&lt;font style=&quot;font-size: 10px;&quot;&gt;元信息&lt;/font&gt;" style="text;html=1;strokeColor=none;fillColor=none;align=center;verticalAlign=middle;whiteSpace=wrap;rounded=0;" vertex="1" parent="1">
                    <mxGeometry x="60" y="340" width="60" height="30" as="geometry"/>
                </mxCell>
            </root>
        </mxGraphModel>
    </diagram>
</mxfile>